PathFileType	4	(X/Y/Z)	C:/Users/beibeiliu/ov580/test_trc/User2\sequence.24_training_dense_right.trc
DataRate	CameraRate	NumFrames	NumMarkers	Units	OrigDataRate	OrigDataStartFrame	OrigNumFrames
120	120	8	19	mm	120	55	81
Frame#	Time	ThumbCMC			ThumbMCP			ThumbIP			ThumbTip			IndexMCP			IndexPIP			IndexTip			MiddleMCP			MiddlePIP			MiddleTip			RingMCP			RingPIP			RingTip			PinkyMCP			PinkyPIP			PinkyTip			BackHand1			BackHand2			BackHand3	
		X0	Y0	Z0	X1	Y1	Z1	X2	Y2	Z2	X3	Y3	Z3	X4	Y4	Z4	X5	Y5	Z5	X6	Y6	Z6	X7	Y7	Z7	X8	Y8	Z8	X9	Y9	Z9	X10	Y10	Z10	X11	Y11	Z11	X12	Y12	Z12	X13	Y13	Z13	X14	Y14	Z14	X15	Y15	Z15	X16	Y16	Z16	X17	Y17	Z17	X18	Y18	Z18	
54	0.45	83.3626	49.3554	-12.3278	71.04	30.8599	-44.2827	78.3059	18.8838	-80.1261	98.5121	12.378	-96.2166	98.5549	98.6702	-80.2565	91.9774	110.085	-103.954	91.1279	119.238	-125.198	115.664	74.1287	-96.3331	102.192	42.2944	-112.162	94.1899	20.8639	-83.8158	133.744	59.0621	-96.7962	123.452	33.7556	-109.761	107.966	16.3148	-81.9702	163.291	57.746	-75.2985	170.202	62.701	-99.3725	178.778	72.4359	-122.902	146.535	68.0404	-32.3355	151.306	61.2005	2.22634	116.37	81.4361	-13.1209	
55	0.458333	70.9976	34.3449	-13.3208	57.5199	13.0228	-43.4758	59.1582	-6.04704	-71.7207	83.623	-14.5342	-89.4987	83.3618	69.5523	-86.7702	80.8615	74.5486	-112.591	79.1581	81.2342	-135.473	101.889	41.8024	-99.2922	86.6054	10.6232	-109.664	79.8755	-4.90427	-71.436	121.95	24.9323	-95.7651	99.8659	-0.248256	-103.013	92.9817	-12.2878	-69.6849	146.494	26.5008	-76.1216	155.428	25.3588	-103.722	156.826	30.8524	-127.122	135.637	46.7652	-37.3626	138.286	44.6862	-1.5891	102.133	63.6526	-18.5988	
56	0.466667	59.9323	25.8947	-12.2424	40.7115	-0.413571	-35.8751	41.7383	-22.9402	-62.2844	59.4998	-38.7116	-78.1078	74.3006	40.1983	-92.5278	67.3754	41.2124	-115.12	66.3716	42.6382	-144.012	86.0307	9.85626	-97.7153	68.7534	-20.7438	-99.8528	61.1828	-22.9492	-59.7002	99.8735	-7.18579	-91.3072	81.4406	-35.3766	-89.6988	74.5652	-32.4398	-54.8868	127.314	-6.33194	-77.3713	133.16	-18.0208	-101.629	133.642	-25.8082	-126.501	124.762	22.2378	-38.2119	129.424	29.779	-6.68225	97.2707	45.9616	-24.6858	
57	0.475	56.1917	31.8642	-8.60367	29.1877	5.91564	-28.3196	20.5215	-23.0089	-50.4212	34.4867	-41.1805	-59.587	64.0724	31.1677	-90.4077	58.0949	25.9259	-116.82	52.4399	19.2387	-144.007	69.4738	-6.90824	-91.2661	42.2122	-30.8299	-82.4102	44.1662	-23.315	-44.4752	80.794	-25.9495	-82.3355	55.1945	-44.2575	-73.8224	51.3015	-28.7095	-39.2884	109.932	-30.6761	-74.8379	101.704	-42.9588	-94.7664	95.2835	-59.1983	-118.614	114.424	12.6531	-40.6235	125.706	19.641	-13.4615	96.6939	40.3869	-28.7391	
58	0.483333	62.6182	47.3556	-9.04962	26.3395	32.1012	-14.3234	4.16987	7.43256	-29.2372	11.1905	-21.193	-40.9841	57.5784	32.2472	-87.1459	43.3405	30.5639	-113.232	32.2737	22.6372	-135.191	50.0003	-1.15084	-81.0594	18.1216	-16.3508	-63.5388	26.2417	1.44973	-27.7549	52.0684	-19.3674	-71.6745	26.9827	-29.7738	-52.3226	33.6759	-11.1797	-24.25	80.4958	-37.704	-63.8006	64.3066	-52.9781	-79.8755	49.0632	-67.1367	-95.782	106.35	2.55967	-38.7836	125.389	12.9058	-11.9537	101.457	40.6748	-30.4755	
59	0.491667	79.0409	62.2807	-9.29396	37.1596	66.7621	-9.77926	9.04224	44.9121	-19.2393	-1.89136	22.0301	-24.2006	55.401	48.0153	-85.0674	37.9891	44.6739	-105.949	20.2108	38.6404	-127.427	31.6256	19.0213	-73.1524	2.34858	22.2737	-51.7553	18.422	32.8438	-18.336	29.8384	-1.47394	-60.4392	5.85931	5.3789	-38.8132	25.4192	19.3454	-12.5092	50.9092	-26.3763	-50.9485	27.3955	-36.2915	-61.7729	5.02468	-39.8832	-73.1576	90.8365	2.19957	-41.2202	119.202	4.67342	-15.3399	107.803	36.9863	-34.448	
60	0.5	101.78	70.7496	-14.1968	65.673	86.6649	-14.0546	29.0491	88.5864	-17.8496	4.81737	70.1887	-20.6947	60.3255	56.6282	-88.7076	41.7402	65.3361	-109.292	22.6952	68.7559	-128.199	34.2365	46.8872	-71.072	9.8722	68.2474	-52.1687	33.9297	69.3009	-14.7069	17.579	31.778	-54.7457	5.29422	50.1492	-34.8947	32.2649	55.8758	-10.3951	26.6681	0.544642	-41.0231	1.06389	6.21997	-54.0215	-19.3517	2.11449	-60.4616	78.2276	4.04522	-38.2722	105.118	-2.91423	-16.7993	107.292	30.0671	-41.4598	
61	0.508333	115.405	65.838	-23.5137	94.1717	99.7408	-21.3071	59.024	114.96	-25.6561	33.0359	103.51	-24.5172	74.0626	62.7404	-89.3445	53.7563	73.6844	-111.693	40.9729	86.0375	-129.46	41.148	64.8051	-70.4454	31.2179	99.5926	-56.0255	55.1037	98.2057	-24.6034	27.2262	60.962	-57.197	19.6005	86.3375	-43.1709	46.2916	86.0411	-16.5742	19.4502	34.1415	-41.1006	-0.546797	42.295	-45.8666	-24.0765	48.0809	-61.7638	66.8014	15.3345	-35.0666	89.8818	-0.908102	-14.4137	107.57	25.909	-42.7547	
